HIERARCHY
ROOT Hips
{
  OFFSET 19.0488 96.5593 -0.798021
  CHANNELS 6 Xposition Yposition Zposition Zrotation Xrotation Yrotation
  JOINT Chest
  {
    OFFSET 1.07959 10.5691 0
    CHANNELS 6 Xposition Yposition Zposition Zrotation Xrotation Yrotation
    JOINT Chest2
    {
      OFFSET -1.08235 11.6675 0
      CHANNELS 6 Xposition Yposition Zposition Zrotation Xrotation Yrotation
      JOINT Chest3
      {
        OFFSET 0 10.5876 0
        CHANNELS 6 Xposition Yposition Zposition Zrotation Xrotation Yrotation
        JOINT Chest4
        {
          OFFSET 0 10.5876 0
          CHANNELS 6 Xposition Yposition Zposition Zrotation Xrotation Yrotation
          JOINT Neck
          {
            OFFSET 0 14.88 0
            CHANNELS 6 Xposition Yposition Zposition Zrotation Xrotation Yrotation
            JOINT Head
            {
              OFFSET -2.16553 9.61484 0
              CHANNELS 6 Xposition Yposition Zposition Zrotation Xrotation Yrotation
              End Site
              {
                OFFSET 0 0 0
              }
            }
          }
          JOINT RightCollar
          {
            OFFSET 0 8.30385 -3.23953
            CHANNELS 6 Xposition Yposition Zposition Zrotation Xrotation Yrotation
            JOINT RightShoulder
            {
              OFFSET 0 0 -15.1725
              CHANNELS 6 Xposition Yposition Zposition Zrotation Xrotation Yrotation
              JOINT RightElbow
              {
                OFFSET 0 0 -32.4113
                CHANNELS 6 Xposition Yposition Zposition Zrotation Xrotation Yrotation
                JOINT RightWrist
                {
                  OFFSET -1.0813 0 -26.4919
                  CHANNELS 6 Xposition Yposition Zposition Zrotation Xrotation Yrotation
                  End Site
                  {
                    OFFSET 0 0 0
                  }
                }
              }
            }
          }
          JOINT LeftCollar
          {
            OFFSET 0 8.30385 3.23953
            CHANNELS 6 Xposition Yposition Zposition Zrotation Xrotation Yrotation
            JOINT LeftShoulder
            {
              OFFSET 0 0 15.1725
              CHANNELS 6 Xposition Yposition Zposition Zrotation Xrotation Yrotation
              JOINT LeftElbow
              {
                OFFSET 1.31199e-005 0 32.4113
                CHANNELS 6 Xposition Yposition Zposition Zrotation Xrotation Yrotation
                JOINT LeftWrist
                {
                  OFFSET -1.0813 0 26.4919
                  CHANNELS 6 Xposition Yposition Zposition Zrotation Xrotation Yrotation
                  End Site
                  {
                    OFFSET 0 0 0
                  }
                }
              }
            }
          }
        }
      }
    }
  }
  JOINT RightHip
  {
    OFFSET 0 0.00547028 -8.63673
    CHANNELS 6 Xposition Yposition Zposition Zrotation Xrotation Yrotation
    JOINT RightKnee
    {
      OFFSET 2.13961 -44.4932 0
      CHANNELS 6 Xposition Yposition Zposition Zrotation Xrotation Yrotation
      JOINT RightAnkle
      {
        OFFSET 3.54051 -43.4407 0
        CHANNELS 6 Xposition Yposition Zposition Zrotation Xrotation Yrotation
        JOINT RightToe
        {
          OFFSET -19.1252 -8.3927 0
          CHANNELS 6 Xposition Yposition Zposition Zrotation Xrotation Yrotation
          End Site
          {
            OFFSET 0 0 0
          }
        }
      }
    }
  }
  JOINT LeftHip
  {
    OFFSET 0 0.00547028 8.63674
    CHANNELS 6 Xposition Yposition Zposition Zrotation Xrotation Yrotation
    JOINT LeftKnee
    {
      OFFSET 2.13962 -44.4932 0
      CHANNELS 6 Xposition Yposition Zposition Zrotation Xrotation Yrotation
      JOINT LeftAnkle
      {
        OFFSET 3.54051 -43.4407 0
        CHANNELS 6 Xposition Yposition Zposition Zrotation Xrotation Yrotation
        JOINT LeftToe
        {
          OFFSET -19.1253 -8.39271 0
          CHANNELS 6 Xposition Yposition Zposition Zrotation Xrotation Yrotation
          End Site
          {
            OFFSET 0 0 0
          }
        }
      }
    }
  }
}
MOTION
Frames:	7
Frame Time:	0.0333333
19.064 96.5357 -0.801987 0.00823596 0.0268501 -0.0212526 1.07959 10.5691 1.19209e-007 -0.00384635 -0.00694985 0.00983414 -1.08235 11.6675 1.19209e-007 -0.00769208 -0.0138991 -0.00327352 -3.92103e-007 10.5876 1.86517e-014 -0.00769208 -0.0138991 -0.00327438 -3.92103e-007 10.5876 3.76366e-014 -0.00769207 -0.0138991 -0.00328147 -5.51066e-007 14.88 2.64233e-014 -0.0414377 0.0846355 -0.0296072 -2.16553 9.61484 -2.38418e-007 0.0803192 -0.0470521 -0.0641895 0 8.30385 -3.23953 3.19701e-018 -3.10601e-018 -3.10601e-018 -4.12222e-006 -4.76837e-006 -15.1725 -24.552 9.02714 -5.66809 6.41961e-007 -3.99284e-006 -32.4113 26.5565 -6.95737 2.53915 -1.0813 4.80214e-006 -26.4919 1.54465 -7.80429 20.6272 0 8.30385 3.23953 3.19701e-018 -3.10601e-018 -3.10601e-018 5.41452e-006 -4.76837e-006 15.1725 -15.8428 -7.56184 -3.73803 1.31199e-005 -2.43155e-006 32.4113 2.1299 19.1584 -4.33021 -1.0813 1.03766e-006 26.4919 -0.587415 -11.4686 -4.11499 1.90735e-006 0.00547028 -8.63673 -2.09807 -0.0377985 0.0631565 2.13961 -44.4932 -7.28134e-006 0.248173 0.00118279 0.0529505 3.54051 -43.4407 6.57826e-007 1.81864 0.0208367 -0.0688625 -19.1252 -8.3927 -1.35324e-007 0.144198 -0.0966193 -0.0797869 1.90735e-006 0.00547028 8.63674 -2.17944 0.0175906 0.0057412 2.13962 -44.4932 -3.45957e-007 0.404428 -0.0858721 -0.101642 3.54051 -43.4407 6.59216e-007 1.77192 -0.064858 0.110545 -19.1253 -8.39271 4.51526e-006 -0.035107 -0.0105755 -0.0614702 
19.1112 96.4782 -0.815268 0.0704828 0.0954161 -0.0325056 1.07959 10.5691 1.19209e-007 -0.0198633 -0.0257251 0.00983414 -1.08235 11.6675 1.19209e-007 -0.0397415 -0.051449 -0.00810812 -3.92103e-007 10.5876 1.87628e-014 -0.0397415 -0.051449 -0.00811281 -3.92103e-007 10.5876 3.76366e-014 -0.0397415 -0.051449 -0.00813371 -5.51066e-007 14.88 2.65343e-014 -0.148073 0.109991 -0.21767 -2.16553 9.61484 -2.38418e-007 0.373429 0.154485 -0.210625 3.55271e-015 8.30385 -3.23953 1.64158e-017 1.2424e-017 -6.21202e-018 -4.12222e-006 -4.76837e-006 -15.1725 -24.905 8.67567 -5.57203 6.41961e-007 -3.99284e-006 -32.4113 26.6278 -6.81351 2.35863 -1.0813 4.80214e-006 -26.4919 1.45831 -7.35962 20.657 3.55271e-015 8.30385 3.23953 1.64158e-017 1.2424e-017 -6.21202e-018 5.41452e-006 -4.76837e-006 15.1725 -15.8425 -7.47933 -3.704 1.31199e-005 -2.43155e-006 32.4113 2.03292 19.1624 -4.3072 -1.0813 1.03766e-006 26.4919 -0.57689 -11.4927 -3.99858 1.90735e-006 0.00547028 -8.63673 -2.42049 -0.152304 0.153372 2.13961 -44.4932 -7.28134e-006 0.764704 0.0325334 0.279817 3.54051 -43.4407 6.57826e-007 1.60639 0.131175 -0.282253 -19.1252 -8.3927 -1.35324e-007 0.487674 -0.221518 0.139296 1.90735e-006 0.00547028 8.63674 -2.72393 0.0422778 0.107646 2.13962 -44.4932 -3.45957e-007 1.35263 -0.274345 -0.373483 3.54051 -43.4407 6.59216e-007 1.35575 -0.23824 0.304484 -19.1253 -8.39271 4.51526e-006 -0.092175 -0.0289226 -0.204783 
19.1208 96.5198 -0.818898 0.00838351 0.0571502 -0.0351081 1.07959 10.5691 1.19209e-007 -0.0344317 -0.0219068 0.00983414 -1.08235 11.6675 1.19209e-007 -0.0688608 -0.0438168 0.0106262 -3.92103e-007 10.5876 1.88738e-014 -0.0688608 -0.0438168 0.0106232 -3.92103e-007 10.5876 3.76366e-014 -0.0688608 -0.0438168 0.0106254 -5.51066e-007 14.88 2.64233e-014 -0.106997 -0.525281 -0.497093 -2.16553 9.61484 -2.38418e-007 0.530272 1.1347 -0.0790835 0 8.30385 -3.23953 1.02074e-016 0 -7.76503e-019 -4.12222e-006 -4.76837e-006 -15.1725 -24.6939 9.04837 -5.44513 6.41961e-007 -3.99284e-006 -32.4113 26.4159 -7.06454 2.25275 -1.0813 4.80214e-006 -26.4919 1.51323 -7.68898 20.5071 0 8.30385 3.23953 1.02074e-016 0 -7.76503e-019 5.41452e-006 -4.76837e-006 15.1725 -16.0752 -7.33838 -3.79495 1.31199e-005 -2.43155e-006 32.4113 2.09671 19.0358 -4.25004 -1.0813 1.03766e-006 26.4919 -0.578052 -11.3586 -4.07796 1.90735e-006 0.00547028 -8.63673 -2.23579 -0.156987 0.0710292 2.13961 -44.4932 -7.28134e-006 0.496397 0.116764 0.279474 3.54051 -43.4407 6.57826e-007 1.79993 0.140064 -0.320489 -19.1252 -8.3927 -1.35324e-007 0.394904 0.0668185 1.0787 1.90735e-006 0.00547028 8.63674 -2.44577 -0.0289661 0.186422 2.13962 -44.4932 -3.45957e-007 0.912656 -0.0872058 -0.0838189 3.54051 -43.4407 6.59216e-007 1.44235 -0.065044 -0.0644405 -19.1253 -8.39271 4.51526e-006 0.162706 0.0364248 -0.187475 
19.1419 96.5221 -0.81547 0.00988703 0.0527983 -0.0323688 1.07959 10.5691 1.19209e-007 -0.0358419 -0.025515 0.00864027 -1.08235 11.6675 1.19209e-007 -0.0716533 -0.0510356 0.0183957 -3.92103e-007 10.5876 1.87628e-014 -0.0716534 -0.0510357 0.0183908 -3.92103e-007 10.5876 3.75255e-014 -0.0716534 -0.0510357 0.018407 -5.51066e-007 14.88 2.63123e-014 -0.127576 -0.470871 -0.457274 -2.16553 9.61484 -2.38418e-007 0.509128 1.08309 -0.0658632 0 8.30385 -3.23953 -7.80264e-017 0 -0 -4.12222e-006 -4.76837e-006 -15.1725 -24.2826 9.30572 -5.61385 6.41961e-007 -3.99284e-006 -32.4113 26.3694 -7.15031 2.37919 -1.0813 4.80214e-006 -26.4919 1.51908 -7.73223 20.4691 -3.55271e-015 8.30385 3.23953 -7.80264e-017 0 -0 5.41452e-006 -4.76837e-006 15.1725 -16.1816 -7.32922 -3.82965 1.31199e-005 -2.43155e-006 32.4113 2.21785 19.0017 -4.17769 -1.0813 1.03766e-006 26.4919 -0.591688 -11.3058 -4.24397 1.90735e-006 0.00547028 -8.63673 -2.24789 -0.145935 0.0561591 2.13961 -44.4932 -7.28134e-006 0.505802 0.106933 0.342204 3.54051 -43.4407 6.57826e-007 1.77591 0.119996 -0.248605 -19.1252 -8.3927 -1.35324e-007 0.512351 -0.261228 0.0338083 1.90735e-006 0.00547028 8.63674 -2.44338 -0.0281401 0.0886368 2.13962 -44.4932 -3.45957e-007 0.863757 -0.0876096 0.0710471 3.54051 -43.4407 6.59216e-007 1.4558 -0.0310069 -0.104328 -19.1253 -8.39271 4.51526e-006 0.243314 0.0531187 -0.323377 
19.17 96.513 -0.812011 -0.00108583 0.0707084 -0.0104174 1.07959 10.5691 1.19209e-007 -0.0303698 -0.0190909 0.00364833 -1.08235 11.6675 1.19209e-007 -0.0607034 -0.0381833 0.00610303 -3.92103e-007 10.5876 1.87628e-014 -0.0607034 -0.0381833 0.0060652 -3.92103e-007 10.5876 3.77476e-014 -0.0607034 -0.0381833 0.00610143 -5.51066e-007 14.88 2.64233e-014 -0.15205 -0.713879 -0.516165 -2.16553 9.61484 -2.38418e-007 0.443117 1.34652 0.0052472 7.10543e-015 8.30385 -3.23953 -6.10055e-017 0 -3.10601e-018 -4.12222e-006 -4.76837e-006 -15.1725 -24.3446 9.27332 -5.60469 6.41961e-007 -3.99284e-006 -32.4113 26.5805 -7.07163 2.44376 -1.0813 4.80214e-006 -26.4919 1.57309 -7.93707 20.6578 3.55271e-015 8.30385 3.23953 -6.10055e-017 0 -3.10601e-018 5.41452e-006 -4.76837e-006 15.1725 -16.1632 -7.45415 -3.78638 1.31199e-005 -2.43155e-006 32.4113 2.18724 19.0019 -4.18939 -1.0813 1.03766e-006 26.4919 -0.588635 -11.3017 -4.20157 1.90735e-006 0.00547028 -8.63673 -2.21497 -0.149704 0.0592271 2.13961 -44.4932 -7.28134e-006 0.460917 0.0786829 0.380852 3.54051 -43.4407 6.57826e-007 1.80341 0.173129 -0.400396 -19.1252 -8.3927 -1.35324e-007 0.87079 -0.237552 0.853718 1.90735e-006 0.00547028 8.63674 -2.53436 -0.030505 0.0546132 2.13962 -44.4932 -3.45957e-007 1.07558 -0.0978925 0.0975415 3.54051 -43.4407 6.59216e-007 1.34599 -0.0250741 -0.113697 -19.1253 -8.39271 4.51526e-006 0.386366 0.0932074 -0.197166 
19.1968 96.5149 -0.819756 -0.0674489 0.108051 0.0203379 1.07959 10.5691 1.19209e-007 -0.030774 -0.0349708 -0.000222156 -1.08235 11.6675 1.19209e-007 -0.0614507 -0.0699414 -0.00106468 -3.92103e-007 10.5876 1.87628e-014 -0.0614507 -0.0699415 -0.00104858 -3.92103e-007 10.5876 3.76366e-014 -0.0614507 -0.0699415 -0.00105562 -5.51066e-007 14.88 2.64233e-014 -0.150307 -0.538762 -0.533996 -2.16553 9.61484 -2.38418e-007 0.412094 1.25468 -0.0850806 0 8.30385 -3.23953 -2.54062e-017 2.48481e-017 -3.10601e-018 -4.12222e-006 -4.76837e-006 -15.1725 -24.3776 9.39853 -5.54545 6.41961e-007 -3.99284e-006 -32.4113 26.6163 -7.07334 2.4384 -1.0813 4.80214e-006 -26.4919 1.59851 -8.05013 20.6981 -3.55271e-015 8.30385 3.23953 -2.54062e-017 2.48481e-017 -3.10601e-018 5.41452e-006 -4.76837e-006 15.1725 -16.2671 -7.42475 -3.76612 1.31199e-005 -2.43155e-006 32.4113 2.18847 18.9697 -4.13838 -1.0813 1.03766e-006 26.4919 -0.591158 -11.2554 -4.2086 1.90735e-006 0.00547028 -8.63673 -2.17508 -0.197346 0.0605576 2.13961 -44.4932 -7.28134e-006 0.456526 0.084488 0.306439 3.54051 -43.4407 6.57826e-007 1.76446 0.115125 -0.233251 -19.1252 -8.3927 -1.35324e-007 0.671498 -0.330623 0.093757 1.90735e-006 0.00547028 8.63674 -2.51695 -0.0667223 0.0700528 2.13962 -44.4932 -3.45957e-007 1.07864 -0.0949974 -0.00644557 3.54051 -43.4407 6.59216e-007 1.44237 -0.0404598 -0.0145731 -19.1253 -8.39271 4.51526e-006 0.111644 0.0197103 -0.321123 
19.2176 96.5195 -0.825416 -0.102715 0.131622 0.000182852 1.07959 10.5691 1.19209e-007 -0.0281178 -0.0417181 -0.0028288 -1.08235 11.6675 1.19209e-007 -0.0553441 -0.0836637 -0.00775324 -3.92103e-007 10.5876 1.87628e-014 -0.0553441 -0.0836637 -0.00776477 -3.92103e-007 10.5876 3.77476e-014 -0.055344 -0.0836638 -0.00775328 -5.51066e-007 14.88 2.64233e-014 -0.109541 -0.513726 -0.513354 -2.16553 9.61484 -2.38418e-007 0.345263 1.19905 -0.0847199 3.55271e-015 8.30385 -3.23953 -2.54183e-017 -2.48481e-017 -0 -4.12222e-006 -4.76837e-006 -15.1725 -24.3288 9.42326 -5.48979 6.41961e-007 -3.99284e-006 -32.4113 26.4457 -7.10426 2.44633 -1.0813 4.80214e-006 -26.4919 1.57435 -7.98367 20.5472 3.55271e-015 8.30385 3.23953 -2.54183e-017 -2.48481e-017 -0 5.41452e-006 -4.76837e-006 15.1725 -16.2922 -7.45522 -3.68936 1.31199e-005 -2.43155e-006 32.4113 2.13251 18.9648 -4.11875 -1.0813 1.03766e-006 26.4919 -0.580843 -11.2886 -4.14574 1.90735e-006 0.00547028 -8.63673 -2.11841 -0.237633 0.0572598 2.13961 -44.4932 -7.28134e-006 0.368824 0.12895 0.277271 3.54051 -43.4407 6.57826e-007 1.86706 0.0555689 -0.209239 -19.1252 -8.3927 -1.35324e-007 0.733136 -0.294977 0.35274 1.90735e-006 0.00547028 8.63674 -2.49199 -0.150452 0.0242659 2.13962 -44.4932 -3.45957e-007 1.10473 0.00301993 0.025817 3.54051 -43.4407 6.59216e-007 1.37529 -0.0384086 -0.0597183 -19.1253 -8.39271 4.51526e-006 0.207798 0.0481107 -0.181022 
